<mxfile host="app.diagrams.net" modified="2023-11-17T09:57:44.771Z" agent="Mozilla/5.0 (X11; Linux x86_64) AppleWebKit/537.36 (KHTML, like Gecko) Chrome/119.0.0.0 Safari/537.36" etag="Px7es3H-1W1BxnYz-CRF" version="22.1.2" type="device">
  <diagram name="Page-1" id="TcBzvYAB7xd72N3hRrTg">
    <mxGraphModel dx="1434" dy="788" grid="1" gridSize="10" guides="1" tooltips="1" connect="1" arrows="1" fold="1" page="1" pageScale="1" pageWidth="850" pageHeight="1100" math="0" shadow="0">
      <root>
        <mxCell id="0" />
        <mxCell id="1" parent="0" />
        <mxCell id="7Qk1J43sROT8hmFFxBe1-1" value="&lt;span style=&quot;font-size: 20px;&quot;&gt;main.py&lt;/span&gt;" style="rounded=1;whiteSpace=wrap;html=1;" vertex="1" parent="1">
          <mxGeometry x="360" y="380" width="120" height="60" as="geometry" />
        </mxCell>
        <mxCell id="7Qk1J43sROT8hmFFxBe1-2" value="&lt;font style=&quot;font-size: 20px;&quot;&gt;data.py&lt;/font&gt;" style="rounded=1;whiteSpace=wrap;html=1;" vertex="1" parent="1">
          <mxGeometry x="150" y="380" width="120" height="60" as="geometry" />
        </mxCell>
        <mxCell id="7Qk1J43sROT8hmFFxBe1-3" value="" style="endArrow=classic;html=1;rounded=0;exitX=1;exitY=0.5;exitDx=0;exitDy=0;entryX=0;entryY=0.5;entryDx=0;entryDy=0;" edge="1" parent="1" source="7Qk1J43sROT8hmFFxBe1-2" target="7Qk1J43sROT8hmFFxBe1-1">
          <mxGeometry width="50" height="50" relative="1" as="geometry">
            <mxPoint x="400" y="430" as="sourcePoint" />
            <mxPoint x="450" y="380" as="targetPoint" />
          </mxGeometry>
        </mxCell>
        <mxCell id="7Qk1J43sROT8hmFFxBe1-6" value="&lt;font style=&quot;font-size: 20px;&quot;&gt;scrap.db&lt;/font&gt;" style="rounded=1;whiteSpace=wrap;html=1;dashed=1;dashPattern=8 8;" vertex="1" parent="1">
          <mxGeometry x="50" y="490" width="120" height="60" as="geometry" />
        </mxCell>
        <mxCell id="7Qk1J43sROT8hmFFxBe1-7" value="&lt;font style=&quot;font-size: 20px;&quot;&gt;data.csv&lt;br&gt;&lt;/font&gt;" style="rounded=1;whiteSpace=wrap;html=1;dashed=1;dashPattern=8 8;" vertex="1" parent="1">
          <mxGeometry x="250" y="490" width="120" height="60" as="geometry" />
        </mxCell>
        <mxCell id="7Qk1J43sROT8hmFFxBe1-8" value="" style="endArrow=classic;html=1;rounded=0;exitX=0.5;exitY=0;exitDx=0;exitDy=0;entryX=0.25;entryY=1;entryDx=0;entryDy=0;" edge="1" parent="1" source="7Qk1J43sROT8hmFFxBe1-6" target="7Qk1J43sROT8hmFFxBe1-2">
          <mxGeometry width="50" height="50" relative="1" as="geometry">
            <mxPoint x="400" y="420" as="sourcePoint" />
            <mxPoint x="450" y="370" as="targetPoint" />
          </mxGeometry>
        </mxCell>
        <mxCell id="7Qk1J43sROT8hmFFxBe1-9" value="" style="endArrow=classic;html=1;rounded=0;exitX=0.5;exitY=0;exitDx=0;exitDy=0;entryX=0.75;entryY=1;entryDx=0;entryDy=0;" edge="1" parent="1" source="7Qk1J43sROT8hmFFxBe1-7" target="7Qk1J43sROT8hmFFxBe1-2">
          <mxGeometry width="50" height="50" relative="1" as="geometry">
            <mxPoint x="120" y="500" as="sourcePoint" />
            <mxPoint x="190" y="450" as="targetPoint" />
          </mxGeometry>
        </mxCell>
        <mxCell id="7Qk1J43sROT8hmFFxBe1-10" value="&lt;font style=&quot;font-size: 20px;&quot;&gt;scraper.py&lt;/font&gt;" style="rounded=1;whiteSpace=wrap;html=1;" vertex="1" parent="1">
          <mxGeometry x="50" y="599" width="120" height="60" as="geometry" />
        </mxCell>
        <mxCell id="7Qk1J43sROT8hmFFxBe1-11" value="" style="endArrow=classic;html=1;rounded=0;exitX=0.5;exitY=0;exitDx=0;exitDy=0;entryX=0.5;entryY=1;entryDx=0;entryDy=0;" edge="1" parent="1" source="7Qk1J43sROT8hmFFxBe1-10" target="7Qk1J43sROT8hmFFxBe1-6">
          <mxGeometry width="50" height="50" relative="1" as="geometry">
            <mxPoint x="400" y="380" as="sourcePoint" />
            <mxPoint x="450" y="330" as="targetPoint" />
          </mxGeometry>
        </mxCell>
        <mxCell id="7Qk1J43sROT8hmFFxBe1-13" value="&lt;span style=&quot;font-size: 20px;&quot;&gt;dashboard.py&lt;/span&gt;" style="rounded=1;whiteSpace=wrap;html=1;" vertex="1" parent="1">
          <mxGeometry x="350" y="240" width="140" height="60" as="geometry" />
        </mxCell>
        <mxCell id="7Qk1J43sROT8hmFFxBe1-14" value="" style="endArrow=classic;startArrow=classic;html=1;rounded=0;exitX=0.5;exitY=0;exitDx=0;exitDy=0;entryX=0.5;entryY=1;entryDx=0;entryDy=0;" edge="1" parent="1" source="7Qk1J43sROT8hmFFxBe1-1" target="7Qk1J43sROT8hmFFxBe1-13">
          <mxGeometry width="50" height="50" relative="1" as="geometry">
            <mxPoint x="390" y="360" as="sourcePoint" />
            <mxPoint x="440" y="310" as="targetPoint" />
          </mxGeometry>
        </mxCell>
        <mxCell id="7Qk1J43sROT8hmFFxBe1-17" value="&lt;span style=&quot;font-size: 20px;&quot;&gt;fake_news.py&lt;/span&gt;" style="rounded=1;whiteSpace=wrap;html=1;" vertex="1" parent="1">
          <mxGeometry x="600" y="320" width="150" height="60" as="geometry" />
        </mxCell>
        <mxCell id="7Qk1J43sROT8hmFFxBe1-18" value="&lt;span style=&quot;font-size: 20px;&quot;&gt;word_cloud.py&lt;/span&gt;" style="rounded=1;whiteSpace=wrap;html=1;" vertex="1" parent="1">
          <mxGeometry x="600" y="440" width="150" height="60" as="geometry" />
        </mxCell>
        <mxCell id="7Qk1J43sROT8hmFFxBe1-19" value="" style="endArrow=classic;startArrow=classic;html=1;rounded=0;entryX=0;entryY=0.5;entryDx=0;entryDy=0;exitX=1;exitY=0.25;exitDx=0;exitDy=0;" edge="1" parent="1" source="7Qk1J43sROT8hmFFxBe1-1" target="7Qk1J43sROT8hmFFxBe1-17">
          <mxGeometry width="50" height="50" relative="1" as="geometry">
            <mxPoint x="390" y="360" as="sourcePoint" />
            <mxPoint x="440" y="310" as="targetPoint" />
          </mxGeometry>
        </mxCell>
        <mxCell id="7Qk1J43sROT8hmFFxBe1-20" value="" style="endArrow=classic;startArrow=classic;html=1;rounded=0;entryX=0;entryY=0.5;entryDx=0;entryDy=0;exitX=1;exitY=0.75;exitDx=0;exitDy=0;" edge="1" parent="1" source="7Qk1J43sROT8hmFFxBe1-1" target="7Qk1J43sROT8hmFFxBe1-18">
          <mxGeometry width="50" height="50" relative="1" as="geometry">
            <mxPoint x="390" y="360" as="sourcePoint" />
            <mxPoint x="440" y="310" as="targetPoint" />
          </mxGeometry>
        </mxCell>
      </root>
    </mxGraphModel>
  </diagram>
</mxfile>
